<?xml version="1.0" standalone="no"?>
<!DOCTYPE svg PUBLIC "-//W3C//DTD SVG 20010904//EN"
 "http://www.w3.org/TR/2001/REC-SVG-20010904/DTD/svg10.dtd">
<svg version="1.0" xmlns="http://www.w3.org/2000/svg"
 width="225.000000pt" height="71.000000pt" viewBox="0 0 225.000000 71.000000"
 preserveAspectRatio="xMidYMid meet">
<metadata>
Created by potrace 1.16, written by Peter Selinger 2001-2019
</metadata>
<g transform="translate(0.000000,71.000000) scale(0.100000,-0.100000)"
fill="#000000" stroke="none">
<path d="M1627 399 c-8 -19 -19 -47 -24 -63 -8 -27 -9 -27 -26 28 -14 43 -23
56 -38 56 -24 0 -24 1 9 -90 33 -91 53 -101 72 -35 7 25 16 48 20 50 4 3 13
-16 20 -41 11 -40 33 -65 45 -52 2 2 17 41 34 86 29 77 29 82 11 82 -14 0 -23
-14 -37 -56 l-17 -56 -18 53 c-25 73 -35 80 -51 38z"/>
<path d="M1138 363 l-28 -4 0 -85 c0 -76 2 -85 18 -82 10 2 19 15 22 33 4 26
9 30 35 30 55 0 70 80 19 104 -14 6 -28 10 -32 10 -4 -1 -19 -4 -34 -6z"/>
<path d="M1997 352 c-21 -23 -22 -75 -2 -92 8 -7 28 -10 45 -8 19 3 30 0 30
-8 0 -17 -31 -27 -44 -14 -13 13 -46 13 -46 1 0 -15 42 -41 66 -41 38 0 54 30
54 103 0 63 -1 67 -22 67 -13 0 -32 3 -43 6 -13 3 -27 -2 -38 -14z"/>
</g>
</svg>
